ffmpeg started on 2016-12-06 at 22:59:11
Report written to "Output/x264/results/ffmpeg/crowd_run_2160p50medium9000k.log"
Command line:
Tools/ffmpeg/ffmpeg -benchmark -y -i Input/y4m/crowd_run_2160p50.y4m -c:v libx264 -preset medium -b:v 9000k -an Output/x264/encoded/crowd_run_2160p50medium9000k.mkv
ffmpeg version N-82227-gdb23fde Copyright (c) 2000-2016 the FFmpeg developers
  built with gcc 5.4.0 (Ubuntu 5.4.0-6ubuntu1~16.04.2) 20160609
  configuration: --prefix=/home/jaroslav/ffmpeg_build --pkg-config-flags=--static --extra-cflags=-I/home/jaroslav/ffmpeg_build/include --extra-ldflags=-L/home/jaroslav/ffmpeg_build/lib --bindir=/home/jaroslav/bin --enable-gpl --enable-libass --enable-libfdk-aac --enable-libfreetype --enable-libmp3lame --enable-libopus --enable-libtheora --enable-libvorbis --enable-libvpx --enable-libx264 --enable-libx265 --enable-nvenc --enable-libmfx --enable-libxvid --enable-libgsm --enable-libopencore-amrnb --enable-version3 --enable-nonfree
  libavutil      55. 35.100 / 55. 35.100
  libavcodec     57. 66.101 / 57. 66.101
  libavformat    57. 57.100 / 57. 57.100
  libavdevice    57.  2.100 / 57.  2.100
  libavfilter     6. 66.100 /  6. 66.100
  libswscale      4.  3.100 /  4.  3.100
  libswresample   2.  4.100 /  2.  4.100
  libpostproc    54.  2.100 / 54.  2.100
Input #0, yuv4mpegpipe, from 'Input/y4m/crowd_run_2160p50.y4m':
  Duration: 00:00:10.00, start: 0.000000, bitrate: 4976642 kb/s
    Stream #0:0: Video: rawvideo (I420 / 0x30323449), yuv420p(progressive), 3840x2160, SAR 1:1 DAR 16:9, 50 fps, 50 tbr, 50 tbn, 50 tbc
[libx264 @ 0x279d1c0] using SAR=1/1
[libx264 @ 0x279d1c0] using cpu capabilities: MMX2 SSE2Fast SSSE3 SSE4.2 AVX FMA3 AVX2 LZCNT BMI2
[libx264 @ 0x279d1c0] profile High, level 5.2
[libx264 @ 0x279d1c0] 264 - core 148 - H.264/MPEG-4 AVC codec - Copyleft 2003-2016 - http://www.videolan.org/x264.html - options: cabac=1 ref=3 deblock=1:0:0 analyse=0x3:0x113 me=hex subme=7 psy=1 psy_rd=1.00:0.00 mixed_ref=1 me_range=16 chroma_me=1 trellis=1 8x8dct=1 cqm=0 deadzone=21,11 fast_pskip=1 chroma_qp_offset=-2 threads=6 lookahead_threads=1 sliced_threads=0 nr=0 decimate=1 interlaced=0 bluray_compat=0 constrained_intra=0 bframes=3 b_pyramid=2 b_adapt=1 b_bias=0 direct=1 weightb=1 open_gop=0 weightp=2 keyint=250 keyint_min=25 scenecut=40 intra_refresh=0 rc_lookahead=40 rc=abr mbtree=1 bitrate=9000 ratetol=1.0 qcomp=0.60 qpmin=0 qpmax=69 qpstep=4 ip_ratio=1.40 aq=1:1.00
Output #0, matroska, to 'Output/x264/encoded/crowd_run_2160p50medium9000k.mkv':
  Metadata:
    encoder         : Lavf57.57.100
    Stream #0:0: Video: h264 (libx264) (H264 / 0x34363248), yuv420p, 3840x2160 [SAR 1:1 DAR 16:9], q=-1--1, 9000 kb/s, 50 fps, 1k tbn, 50 tbc
    Metadata:
      encoder         : Lavc57.66.101 libx264
    Side data:
      cpb: bitrate max/min/avg: 0/0/9000000 buffer size: 0 vbv_delay: -1
Stream mapping:
  Stream #0:0 -> #0:0 (rawvideo (native) -> h264 (libx264))
Press [q] to stop, [?] for help
frame=   19 fps=0.0 q=0.0 size=       0kB time=00:00:00.00 bitrate=N/A speed=   0x    frame=   31 fps= 29 q=0.0 size=       0kB time=00:00:00.00 bitrate=N/A speed=   0x    frame=   35 fps= 21 q=0.0 size=       0kB time=00:00:00.00 bitrate=N/A speed=   0x    frame=   43 fps= 20 q=0.0 size=       0kB time=00:00:00.00 bitrate=N/A speed=   0x    frame=   47 fps= 11 q=0.0 size=       0kB time=00:00:00.00 bitrate=N/A speed=   0x    frame=   52 fps= 10 q=36.0 size=       1kB time=-00:00:00.01 bitrate=N/A speed=N/A    frame=   56 fps= 10 q=40.0 size=       1kB time=00:00:00.06 bitrate=  96.3kbits/s speed=0.0111x    frame=   58 fps=9.7 q=42.0 size=       1kB time=00:00:00.10 bitrate=  58.1kbits/s speed=0.0168x    frame=   64 fps=9.8 q=51.0 size=       1kB time=00:00:00.22 bitrate=  26.6kbits/s speed=0.0337x    frame=   71 fps= 10 q=50.0 size=       1kB time=00:00:00.36 bitrate=  16.3kbits/s speed=0.0509x    frame=   78 fps= 10 q=50.0 size=       1kB time=00:00:00.50 bitrate=  11.7kbits/s speed=0.0657x    frame=   83 fps= 10 q=50.0 size=       1kB time=00:00:00.60 bitrate=   9.8kbits/s speed=0.0739x    frame=   90 fps= 10 q=49.0 size=       1kB time=00:00:00.74 bitrate=   7.9kbits/s speed=0.0856x    frame=   95 fps= 10 q=49.0 size=       1kB time=00:00:00.84 bitrate=   7.0kbits/s speed=0.0919x    frame=  101 fps= 10 q=49.0 size=       1kB time=00:00:00.96 bitrate=   6.1kbits/s speed=0.0988x    frame=  109 fps= 10 q=49.0 size=       1kB time=00:00:01.12 bitrate=   5.2kbits/s speed=0.107x    frame=  117 fps= 11 q=49.0 size=       1kB time=00:00:01.28 bitrate=   4.6kbits/s speed=0.117x    frame=  122 fps= 11 q=48.0 size=       1kB time=00:00:01.38 bitrate=   4.3kbits/s speed=0.12x    frame=  129 fps= 11 q=48.0 size=       1kB time=00:00:01.52 bitrate=   3.9kbits/s speed=0.126x    frame=  135 fps= 11 q=48.0 size=       1kB time=00:00:01.64 bitrate=   3.6kbits/s speed=0.13x    frame=  142 fps= 11 q=48.0 size=       1kB time=00:00:01.78 bitrate=   3.3kbits/s speed=0.135x    frame=  149 fps= 11 q=48.0 size=       1kB time=00:00:01.92 bitrate=   3.1kbits/s speed=0.138x    frame=  157 fps= 11 q=48.0 size=       1kB time=00:00:02.08 bitrate=   2.8kbits/s speed=0.143x    frame=  164 fps= 11 q=48.0 size=       1kB time=00:00:02.22 bitrate=   2.6kbits/s speed=0.147x    frame=  169 fps= 11 q=48.0 size=       1kB time=00:00:02.32 bitrate=   2.5kbits/s speed=0.148x    frame=  177 fps= 11 q=48.0 size=       1kB time=00:00:02.48 bitrate=   2.4kbits/s speed=0.152x    frame=  185 fps= 11 q=47.0 size=       1kB time=00:00:02.64 bitrate=   2.2kbits/s speed=0.155x    frame=  193 fps= 11 q=47.0 size=       1kB time=00:00:02.80 bitrate=   2.1kbits/s speed=0.158x    frame=  200 fps= 11 q=47.0 size=       1kB time=00:00:02.94 bitrate=   2.0kbits/s speed=0.161x    frame=  206 fps= 11 q=47.0 size=       1kB time=00:00:03.06 bitrate=   1.9kbits/s speed=0.163x    frame=  212 fps= 11 q=47.0 size=       1kB time=00:00:03.18 bitrate=   1.8kbits/s speed=0.164x    frame=  218 fps= 11 q=47.0 size=       1kB time=00:00:03.30 bitrate=   1.8kbits/s speed=0.166x    frame=  223 fps= 11 q=47.0 size=       1kB time=00:00:03.40 bitrate=   1.7kbits/s speed=0.166x    frame=  230 fps= 11 q=47.0 size=       1kB time=00:00:03.54 bitrate=   1.7kbits/s speed=0.168x    frame=  237 fps= 11 q=47.0 size=       1kB time=00:00:03.68 bitrate=   1.6kbits/s speed=0.17x    frame=  244 fps= 11 q=47.0 size=       1kB time=00:00:03.82 bitrate=   1.5kbits/s speed=0.172x    frame=  250 fps= 11 q=47.0 size=       1kB time=00:00:03.94 bitrate=   1.5kbits/s speed=0.173x    frame=  254 fps= 11 q=47.0 size=       1kB time=00:00:04.02 bitrate=   1.5kbits/s speed=0.172x    frame=  261 fps= 11 q=47.0 size=       1kB time=00:00:04.16 bitrate=   1.4kbits/s speed=0.174x    frame=  266 fps= 11 q=47.0 size=       1kB time=00:00:04.26 bitrate=   1.4kbits/s speed=0.174x    frame=  273 fps= 11 q=47.0 size=    5149kB time=00:00:04.40 bitrate=9584.7kbits/s speed=0.176x    frame=  277 fps= 11 q=47.0 size=    5149kB time=00:00:04.48 bitrate=9413.6kbits/s speed=0.175x    frame=  282 fps= 11 q=47.0 size=    5149kB time=00:00:04.58 bitrate=9208.1kbits/s speed=0.175x    frame=  289 fps= 11 q=47.0 size=    5149kB time=00:00:04.72 bitrate=8935.0kbits/s speed=0.177x    frame=  294 fps= 11 q=47.0 size=    5149kB time=00:00:04.82 bitrate=8749.7kbits/s speed=0.177x    frame=  296 fps= 10 q=44.0 size=    5149kB time=00:00:04.86 bitrate=8677.7kbits/s speed=0.172x    frame=  305 fps= 11 q=47.0 size=    5734kB time=00:00:05.04 bitrate=9318.7kbits/s speed=0.175x    frame=  311 fps= 11 q=47.0 size=    5734kB time=00:00:05.16 bitrate=9102.1kbits/s speed=0.175x    frame=  316 fps= 11 q=47.0 size=    5734kB time=00:00:05.26 bitrate=8929.0kbits/s speed=0.176x    frame=  323 fps= 11 q=47.0 size=    5734kB time=00:00:05.40 bitrate=8697.6kbits/s speed=0.177x    frame=  330 fps= 11 q=47.0 size=    5734kB time=00:00:05.54 bitrate=8477.8kbits/s speed=0.178x    frame=  335 fps= 11 q=47.0 size=    5734kB time=00:00:05.64 bitrate=8327.5kbits/s speed=0.178x    frame=  342 fps= 11 q=47.0 size=    5734kB time=00:00:05.78 bitrate=8125.9kbits/s speed=0.18x    frame=  347 fps= 11 q=47.0 size=    5734kB time=00:00:05.88 bitrate=7987.7kbits/s speed=0.179x    frame=  355 fps= 11 q=47.0 size=    5734kB time=00:00:06.04 bitrate=7776.1kbits/s speed=0.18x    frame=  362 fps= 11 q=47.0 size=    5734kB time=00:00:06.18 bitrate=7600.0kbits/s speed=0.182x    frame=  367 fps= 11 q=47.0 size=    5734kB time=00:00:06.28 bitrate=7479.0kbits/s speed=0.181x    frame=  375 fps= 11 q=47.0 size=    5734kB time=00:00:06.44 bitrate=7293.2kbits/s speed=0.182x    frame=  383 fps= 11 q=47.0 size=    5734kB time=00:00:06.60 bitrate=7116.5kbits/s speed=0.183x    frame=  391 fps= 11 q=47.0 size=    5734kB time=00:00:06.76 bitrate=6948.0kbits/s speed=0.184x    frame=  399 fps= 11 q=47.0 size=    5734kB time=00:00:06.92 bitrate=6787.4kbits/s speed=0.184x    frame=  406 fps= 11 q=47.0 size=    5734kB time=00:00:07.06 bitrate=6652.8kbits/s speed=0.184x    frame=  412 fps= 11 q=47.0 size=    5734kB time=00:00:07.18 bitrate=6541.7kbits/s speed=0.184x    frame=  418 fps= 11 q=47.0 size=    5734kB time=00:00:07.30 bitrate=6434.1kbits/s speed=0.185x    frame=  424 fps= 11 q=47.0 size=    5734kB time=00:00:07.42 bitrate=6330.1kbits/s speed=0.185x    frame=  431 fps= 11 q=47.0 size=    5734kB time=00:00:07.56 bitrate=6212.9kbits/s speed=0.185x    frame=  437 fps= 11 q=47.0 size=    5734kB time=00:00:07.68 bitrate=6115.8kbits/s speed=0.186x    frame=  442 fps= 11 q=47.0 size=    5734kB time=00:00:07.78 bitrate=6037.2kbits/s speed=0.186x    frame=  448 fps= 11 q=47.0 size=    5734kB time=00:00:07.90 bitrate=5945.5kbits/s speed=0.186x    frame=  455 fps= 11 q=47.0 size=    5734kB time=00:00:08.04 bitrate=5842.0kbits/s speed=0.186x    frame=  463 fps= 11 q=47.0 size=    5734kB time=00:00:08.20 bitrate=5728.0kbits/s speed=0.187x    frame=  468 fps= 11 q=47.0 size=    5734kB time=00:00:08.30 bitrate=5659.0kbits/s speed=0.187x    frame=  474 fps= 11 q=47.0 size=    5734kB time=00:00:08.42 bitrate=5578.4kbits/s speed=0.187x    frame=  480 fps= 11 q=47.0 size=    5734kB time=00:00:08.54 bitrate=5500.0kbits/s speed=0.188x    frame=  487 fps= 11 q=47.0 size=    5734kB time=00:00:08.68 bitrate=5411.3kbits/s speed=0.188x    frame=  495 fps= 11 q=47.0 size=    5734kB time=00:00:08.84 bitrate=5313.4kbits/s speed=0.189x    frame=  500 fps=9.8 q=-1.0 Lsize=   11091kB time=00:00:09.94 bitrate=9140.0kbits/s speed=0.196x    
video:11087kB audio:0kB subtitle:0kB other streams:0kB global headers:0kB muxing overhead: 0.040553%
bench: utime=173.260s
bench: maxrss=1830464kB
[libx264 @ 0x279d1c0] frame I:2     Avg QP:36.52  size:301060
[libx264 @ 0x279d1c0] frame P:126   Avg QP:46.10  size: 41767
[libx264 @ 0x279d1c0] frame B:372   Avg QP:48.20  size: 14751
[libx264 @ 0x279d1c0] consecutive B-frames:  0.8%  0.0%  0.0% 99.2%
[libx264 @ 0x279d1c0] mb I  I16..4: 20.5% 68.3% 11.1%
[libx264 @ 0x279d1c0] mb P  I16..4:  2.8%  5.2%  0.0%  P16..4: 29.5%  3.1%  2.1%  0.0%  0.0%    skip:57.2%
[libx264 @ 0x279d1c0] mb B  I16..4:  0.0%  0.1%  0.0%  B16..8: 33.2%  0.6%  0.0%  direct: 0.2%  skip:65.8%  L0:43.0% L1:56.8% BI: 0.2%
[libx264 @ 0x279d1c0] final ratefactor: 39.05
[libx264 @ 0x279d1c0] 8x8 transform intra:65.2% inter:96.4%
[libx264 @ 0x279d1c0] coded y,uvDC,uvAC intra: 23.0% 54.4% 16.5% inter: 2.8% 5.1% 0.1%
[libx264 @ 0x279d1c0] i16 v,h,dc,p: 40% 25%  8% 27%
[libx264 @ 0x279d1c0] i8 v,h,dc,ddl,ddr,vr,hd,vl,hu: 17% 10% 36%  7%  6%  7%  6%  7%  5%
[libx264 @ 0x279d1c0] i4 v,h,dc,ddl,ddr,vr,hd,vl,hu: 22% 17% 13%  9%  9%  9%  8%  7%  7%
[libx264 @ 0x279d1c0] i8c dc,h,v,p: 81%  7% 11%  2%
[libx264 @ 0x279d1c0] Weighted P-Frames: Y:1.6% UV:0.8%
[libx264 @ 0x279d1c0] ref P L0: 71.0%  4.9% 17.6%  6.4%  0.1%
[libx264 @ 0x279d1c0] ref B L0: 94.8%  4.2%  1.1%
[libx264 @ 0x279d1c0] ref B L1: 98.7%  1.3%
[libx264 @ 0x279d1c0] kb/s:9081.80
